<?xml version="1.0" encoding="UTF-8"?>
<!-- Created with Inkscape (http://www.inkscape.org/) -->
<svg width="192" height="192" version="1.1" viewBox="0 0 192 192" xml:space="preserve" xmlns="http://www.w3.org/2000/svg" xmlns:cc="http://creativecommons.org/ns#" xmlns:dc="http://purl.org/dc/elements/1.1/" xmlns:rdf="http://www.w3.org/1999/02/22-rdf-syntax-ns#"><metadata><rdf:RDF><cc:Work rdf:about=""><dc:format>image/svg+xml</dc:format><dc:type rdf:resource="http://purl.org/dc/dcmitype/StillImage"/><dc:title/></cc:Work></rdf:RDF></metadata><defs><clipPath id="clipPath16"><path d="m0 192h192v-192h-192v192z"/></clipPath><clipPath id="clipPath26"><path d="m-4.883e-4 192h192v-192h-192v192z"/></clipPath><clipPath id="clipPath34"><path d="m-4.883e-4 192h192v-192h-192v192z"/></clipPath><clipPath id="clipPath38"><path d="m0 192h192v-192h-192v192z"/></clipPath><clipPath id="clipPath42"><path d="m0 192h192v-192h-192v192z"/></clipPath><clipPath id="clipPath116"><path d="m0 192h192v-192h-192v192z"/></clipPath><clipPath id="clipPath120"><path d="m0 192h192v-192h-192v192z"/></clipPath><clipPath id="clipPath124"><path d="m192 192h-192v-192h192v192z"/></clipPath></defs><g transform="matrix(1.25,0,0,-1.25,0,192)"><g transform="scale(.8)" fill="#666" fill-opacity=".7992"><g clip-path="url(#clipPath16)" fill="#666" fill-opacity=".7992"><g transform="matrix(1,0,0,-1,0,192)"><g fill="#666" fill-opacity=".7992"><g clip-path="url(#clipPath26)" fill="#666" fill-opacity=".7992"><g fill="#666" fill-opacity=".7992"><g fill="#666" fill-opacity=".7992"><g clip-path="url(#clipPath34)" fill="#666" fill-opacity=".7992" opacity=".4"><g clip-path="url(#clipPath38)" fill="#666" fill-opacity=".7992"><g transform="translate(.2497 .2497)" fill="#666" fill-opacity=".7992"><path d="m0 0 191.5 191.5" fill="#666" fill-opacity=".7992" stroke="#000" stroke-miterlimit="10" stroke-width=".25"/></g></g><path d="m0 0h192v192h-192zm0.249 191.8h191.5v-191.5h-191.5z"/><g clip-path="url(#clipPath42)" fill="#666" fill-opacity=".7992"><g transform="translate(191.7 .2497)"><path d="m0 0-191.5 191.5" fill="#666" fill-opacity=".7992" stroke="#000" stroke-miterlimit="10" stroke-width=".25"/></g><g transform="translate(124 -4e-4)"><path d="m0 0v192" fill="#666" fill-opacity=".7992" stroke="#000" stroke-miterlimit="10" stroke-width=".25"/></g><g transform="translate(68 -4e-4)"><path d="m0 0v192" fill="#666" fill-opacity=".7992" stroke="#000" stroke-miterlimit="10" stroke-width=".25"/></g><g transform="translate(192 124)"><path d="m0 0h-192" fill="#666" fill-opacity=".7992" stroke="#000" stroke-miterlimit="10" stroke-width=".25"/></g><g transform="translate(192 68)"><path d="m0 0h-192" fill="#666" fill-opacity=".7992" stroke="#000" stroke-miterlimit="10" stroke-width=".25"/></g><g transform="translate(136 96)"><path d="m0 0c0 22.09-17.91 40-40 40s-40-17.91-40-40 17.91-40 40-40 40 17.91 40 40z" fill="#666" fill-opacity=".7992" stroke="#000" stroke-miterlimit="10" stroke-width=".25"/></g><g transform="translate(-4e-4 96)"><path d="m0 0h192" fill="#666" fill-opacity=".7992" stroke="#000" stroke-miterlimit="10" stroke-width=".25"/></g><g transform="translate(96 -5e-4)"><path d="m0 0v192" fill="#666" fill-opacity=".7992" stroke="#000" stroke-miterlimit="10" stroke-width=".25"/></g><g transform="translate(96 8)"><path d="m0 0c-48.6 0-88 39.4-88 88s39.4 88 88 88 88-39.4 88-88-39.4-88-88-88m0 0.25c48.39 0 87.75 39.36 87.75 87.75s-39.36 87.75-87.75 87.75-87.75-39.36-87.75-87.75 39.36-87.75 87.75-87.75" fill="#666" fill-opacity=".7992"/></g><g transform="translate(160 20)"><path d="m0 0h-128c-6.6 0-12 5.4-12 12v128c0 6.6 5.4 12 12 12h128c6.6 0 12-5.4 12-12v-128c0-6.6-5.4-12-12-12m0 0.25c6.479 0 11.75 5.271 11.75 11.75v128c0 6.479-5.271 11.75-11.75 11.75h-128c-6.479 0-11.75-5.271-11.75-11.75v-128c0-6.479 5.271-11.75 11.75-11.75h128" fill="#666" fill-opacity=".7992"/></g><g transform="translate(148 8)"><path d="m0 0h-104c-6.6 0-12 5.4-12 12v152c0 6.6 5.4 12 12 12h104c6.6 0 12-5.4 12-12v-152c0-6.6-5.4-12-12-12m0 0.25c6.479 0 11.75 5.271 11.75 11.75v152c0 6.479-5.271 11.75-11.75 11.75h-104c-6.479 0-11.75-5.271-11.75-11.75v-152c0-6.479 5.271-11.75 11.75-11.75h104" fill="#666" fill-opacity=".7992"/></g><g transform="translate(172 32)"><path d="m0 0h-152c-6.6 0-12 5.4-12 12v104c0 6.6 5.4 12 12 12h152c6.6 0 12-5.4 12-12v-104c0-6.6-5.4-12-12-12m0 0.25c6.479 0 11.75 5.271 11.75 11.75v104c0 6.479-5.271 11.75-11.75 11.75h-152c-6.479 0-11.75-5.271-11.75-11.75v-104c0-6.479 5.271-11.75 11.75-11.75h152" fill="#666" fill-opacity=".7992"/></g></g></g></g></g></g></g></g><g fill="#666" fill-opacity=".7992"><g clip-path="url(#clipPath116)" fill="#666" fill-opacity=".7992" opacity=".15"><g transform="matrix(1,0,0,-1,0,192)" fill="#666" fill-opacity=".7992"><g fill="#666" fill-opacity=".7992"><g clip-path="url(#clipPath120)" fill="#666" fill-opacity=".7992"><g clip-path="url(#clipPath124)" fill="#666" fill-opacity=".7992"><g transform="translate(4 192)"><path d="m0 0v-192" fill="#666" fill-opacity=".7992" stroke="#000" stroke-miterlimit="10" stroke-width=".25"/></g><g transform="translate(8 192)"><path d="m0 0v-192" fill="#666" fill-opacity=".7992" stroke="#000" stroke-miterlimit="10" stroke-width=".25"/></g><g transform="translate(12 192)"><path d="m0 0v-192" fill="#666" fill-opacity=".7992" stroke="#000" stroke-miterlimit="10" stroke-width=".25"/></g><g transform="translate(16 192)"><path d="m0 0v-192" fill="#666" fill-opacity=".7992" stroke="#000" stroke-miterlimit="10" stroke-width=".25"/></g><g transform="translate(20 192)"><path d="m0 0v-192" fill="#666" fill-opacity=".7992" stroke="#000" stroke-miterlimit="10" stroke-width=".25"/></g><g transform="translate(24 192)"><path d="m0 0v-192" fill="#666" fill-opacity=".7992" stroke="#000" stroke-miterlimit="10" stroke-width=".25"/></g><g transform="translate(28 192)"><path d="m0 0v-192" fill="#666" fill-opacity=".7992" stroke="#000" stroke-miterlimit="10" stroke-width=".25"/></g><g transform="translate(32 192)"><path d="m0 0v-192" fill="#666" fill-opacity=".7992" stroke="#000" stroke-miterlimit="10" stroke-width=".25"/></g><g transform="translate(36 192)"><path d="m0 0v-192" fill="#666" fill-opacity=".7992" stroke="#000" stroke-miterlimit="10" stroke-width=".25"/></g><g transform="translate(40 192)"><path d="m0 0v-192" fill="#666" fill-opacity=".7992" stroke="#000" stroke-miterlimit="10" stroke-width=".25"/></g><g transform="translate(44 192)"><path d="m0 0v-192" fill="#666" fill-opacity=".7992" stroke="#000" stroke-miterlimit="10" stroke-width=".25"/></g><g transform="translate(48 192)"><path d="m0 0v-192" fill="#666" fill-opacity=".7992" stroke="#000" stroke-miterlimit="10" stroke-width=".25"/></g><g transform="translate(52 192)"><path d="m0 0v-192" fill="#666" fill-opacity=".7992" stroke="#000" stroke-miterlimit="10" stroke-width=".25"/></g><g transform="translate(56 192)"><path d="m0 0v-192" fill="#666" fill-opacity=".7992" stroke="#000" stroke-miterlimit="10" stroke-width=".25"/></g><g transform="translate(60 192)"><path d="m0 0v-192" fill="#666" fill-opacity=".7992" stroke="#000" stroke-miterlimit="10" stroke-width=".25"/></g><g transform="translate(64 192)"><path d="m0 0v-192" fill="#666" fill-opacity=".7992" stroke="#000" stroke-miterlimit="10" stroke-width=".25"/></g><g transform="translate(68 192)"><path d="m0 0v-192" fill="#666" fill-opacity=".7992" stroke="#000" stroke-miterlimit="10" stroke-width=".25"/></g><g transform="translate(72 192)"><path d="m0 0v-192" fill="#666" fill-opacity=".7992" stroke="#000" stroke-miterlimit="10" stroke-width=".25"/></g><g transform="translate(76 192)"><path d="m0 0v-192" fill="#666" fill-opacity=".7992" stroke="#000" stroke-miterlimit="10" stroke-width=".25"/></g><g transform="translate(80 192)"><path d="m0 0v-192" fill="#666" fill-opacity=".7992" stroke="#000" stroke-miterlimit="10" stroke-width=".25"/></g><g transform="translate(84 192)"><path d="m0 0v-192" fill="#666" fill-opacity=".7992" stroke="#000" stroke-miterlimit="10" stroke-width=".25"/></g><g transform="translate(88 192)"><path d="m0 0v-192" fill="#666" fill-opacity=".7992" stroke="#000" stroke-miterlimit="10" stroke-width=".25"/></g><g transform="translate(92 192)"><path d="m0 0v-192" fill="#666" fill-opacity=".7992" stroke="#000" stroke-miterlimit="10" stroke-width=".25"/></g><g transform="translate(96 192)"><path d="m0 0v-192" fill="#666" fill-opacity=".7992" stroke="#000" stroke-miterlimit="10" stroke-width=".25"/></g><g transform="translate(100 192)"><path d="m0 0v-192" fill="#666" fill-opacity=".7992" stroke="#000" stroke-miterlimit="10" stroke-width=".25"/></g><g transform="translate(104 192)"><path d="m0 0v-192" fill="#666" fill-opacity=".7992" stroke="#000" stroke-miterlimit="10" stroke-width=".25"/></g><g transform="translate(108 192)"><path d="m0 0v-192" fill="#666" fill-opacity=".7992" stroke="#000" stroke-miterlimit="10" stroke-width=".25"/></g><g transform="translate(112 192)"><path d="m0 0v-192" fill="#666" fill-opacity=".7992" stroke="#000" stroke-miterlimit="10" stroke-width=".25"/></g><g transform="translate(116 192)"><path d="m0 0v-192" fill="#666" fill-opacity=".7992" stroke="#000" stroke-miterlimit="10" stroke-width=".25"/></g><g transform="translate(120 192)"><path d="m0 0v-192" fill="#666" fill-opacity=".7992" stroke="#000" stroke-miterlimit="10" stroke-width=".25"/></g><g transform="translate(124 192)"><path d="m0 0v-192" fill="#666" fill-opacity=".7992" stroke="#000" stroke-miterlimit="10" stroke-width=".25"/></g><g transform="translate(128 192)"><path d="m0 0v-192" fill="#666" fill-opacity=".7992" stroke="#000" stroke-miterlimit="10" stroke-width=".25"/></g><g transform="translate(132 192)"><path d="m0 0v-192" fill="#666" fill-opacity=".7992" stroke="#000" stroke-miterlimit="10" stroke-width=".25"/></g><g transform="translate(136 192)"><path d="m0 0v-192" fill="#666" fill-opacity=".7992" stroke="#000" stroke-miterlimit="10" stroke-width=".25"/></g><g transform="translate(140 192)"><path d="m0 0v-192" fill="#666" fill-opacity=".7992" stroke="#000" stroke-miterlimit="10" stroke-width=".25"/></g><g transform="translate(144 192)"><path d="m0 0v-192" fill="#666" fill-opacity=".7992" stroke="#000" stroke-miterlimit="10" stroke-width=".25"/></g><g transform="translate(148 192)"><path d="m0 0v-192" fill="#666" fill-opacity=".7992" stroke="#000" stroke-miterlimit="10" stroke-width=".25"/></g><g transform="translate(152 192)"><path d="m0 0v-192" fill="#666" fill-opacity=".7992" stroke="#000" stroke-miterlimit="10" stroke-width=".25"/></g><g transform="translate(156 192)"><path d="m0 0v-192" fill="#666" fill-opacity=".7992" stroke="#000" stroke-miterlimit="10" stroke-width=".25"/></g><g transform="translate(160 192)"><path d="m0 0v-192" fill="#666" fill-opacity=".7992" stroke="#000" stroke-miterlimit="10" stroke-width=".25"/></g><g transform="translate(164 192)"><path d="m0 0v-192" fill="#666" fill-opacity=".7992" stroke="#000" stroke-miterlimit="10" stroke-width=".25"/></g><g transform="translate(168 192)"><path d="m0 0v-192" fill="#666" fill-opacity=".7992" stroke="#000" stroke-miterlimit="10" stroke-width=".25"/></g><g transform="translate(172 192)"><path d="m0 0v-192" fill="#666" fill-opacity=".7992" stroke="#000" stroke-miterlimit="10" stroke-width=".25"/></g><g transform="translate(176 192)"><path d="m0 0v-192" fill="#666" fill-opacity=".7992" stroke="#000" stroke-miterlimit="10" stroke-width=".25"/></g><g transform="translate(180 192)"><path d="m0 0v-192" fill="#666" fill-opacity=".7992" stroke="#000" stroke-miterlimit="10" stroke-width=".25"/></g><g transform="translate(184 192)"><path d="m0 0v-192" fill="#666" fill-opacity=".7992" stroke="#000" stroke-miterlimit="10" stroke-width=".25"/></g><g transform="translate(188 192)"><path d="m0 0v-192" fill="#666" fill-opacity=".7992" stroke="#000" stroke-miterlimit="10" stroke-width=".25"/></g><g transform="translate(0 4)"><path d="m0 0h192" fill="#666" fill-opacity=".7992" stroke="#000" stroke-miterlimit="10" stroke-width=".25"/></g><g transform="translate(0 8)"><path d="m0 0h192" fill="#666" fill-opacity=".7992" stroke="#000" stroke-miterlimit="10" stroke-width=".25"/></g><g transform="translate(0 12)"><path d="m0 0h192" fill="#666" fill-opacity=".7992" stroke="#000" stroke-miterlimit="10" stroke-width=".25"/></g><g transform="translate(0 16)"><path d="m0 0h192" fill="#666" fill-opacity=".7992" stroke="#000" stroke-miterlimit="10" stroke-width=".25"/></g><g transform="translate(0 20)"><path d="m0 0h192" fill="#666" fill-opacity=".7992" stroke="#000" stroke-miterlimit="10" stroke-width=".25"/></g><g transform="translate(0 24)"><path d="m0 0h192" fill="#666" fill-opacity=".7992" stroke="#000" stroke-miterlimit="10" stroke-width=".25"/></g><g transform="translate(0 28)"><path d="m0 0h192" fill="#666" fill-opacity=".7992" stroke="#000" stroke-miterlimit="10" stroke-width=".25"/></g><g transform="translate(0 32)"><path d="m0 0h192" fill="#666" fill-opacity=".7992" stroke="#000" stroke-miterlimit="10" stroke-width=".25"/></g><g transform="translate(0 36)"><path d="m0 0h192" fill="#666" fill-opacity=".7992" stroke="#000" stroke-miterlimit="10" stroke-width=".25"/></g><g transform="translate(0 40)"><path d="m0 0h192" fill="#666" fill-opacity=".7992" stroke="#000" stroke-miterlimit="10" stroke-width=".25"/></g><g transform="translate(0 44)"><path d="m0 0h192" fill="#666" fill-opacity=".7992" stroke="#000" stroke-miterlimit="10" stroke-width=".25"/></g><g transform="translate(0 48)"><path d="m0 0h192" fill="#666" fill-opacity=".7992" stroke="#000" stroke-miterlimit="10" stroke-width=".25"/></g><g transform="translate(0 52)"><path d="m0 0h192" fill="#666" fill-opacity=".7992" stroke="#000" stroke-miterlimit="10" stroke-width=".25"/></g><g transform="translate(0 56)"><path d="m0 0h192" fill="#666" fill-opacity=".7992" stroke="#000" stroke-miterlimit="10" stroke-width=".25"/></g><g transform="translate(0 60)"><path d="m0 0h192" fill="#666" fill-opacity=".7992" stroke="#000" stroke-miterlimit="10" stroke-width=".25"/></g><g transform="translate(0 64)"><path d="m0 0h192" fill="#666" fill-opacity=".7992" stroke="#000" stroke-miterlimit="10" stroke-width=".25"/></g><g transform="translate(0 68)"><path d="m0 0h192" fill="#666" fill-opacity=".7992" stroke="#000" stroke-miterlimit="10" stroke-width=".25"/></g><g transform="translate(0 72)"><path d="m0 0h192" fill="#666" fill-opacity=".7992" stroke="#000" stroke-miterlimit="10" stroke-width=".25"/></g><g transform="translate(0 76)"><path d="m0 0h192" fill="#666" fill-opacity=".7992" stroke="#000" stroke-miterlimit="10" stroke-width=".25"/></g><g transform="translate(0 80)"><path d="m0 0h192" fill="#666" fill-opacity=".7992" stroke="#000" stroke-miterlimit="10" stroke-width=".25"/></g><g transform="translate(0 84)"><path d="m0 0h192" fill="#666" fill-opacity=".7992" stroke="#000" stroke-miterlimit="10" stroke-width=".25"/></g><g transform="translate(0 88)"><path d="m0 0h192" fill="#666" fill-opacity=".7992" stroke="#000" stroke-miterlimit="10" stroke-width=".25"/></g><g transform="translate(0 92)"><path d="m0 0h192" fill="#666" fill-opacity=".7992" stroke="#000" stroke-miterlimit="10" stroke-width=".25"/></g><g transform="translate(0 96)"><path d="m0 0h192" fill="#666" fill-opacity=".7992" stroke="#000" stroke-miterlimit="10" stroke-width=".25"/></g><g transform="translate(0 100)"><path d="m0 0h192" fill="#666" fill-opacity=".7992" stroke="#000" stroke-miterlimit="10" stroke-width=".25"/></g><g transform="translate(0 104)"><path d="m0 0h192" fill="#666" fill-opacity=".7992" stroke="#000" stroke-miterlimit="10" stroke-width=".25"/></g><g transform="translate(0 108)"><path d="m0 0h192" fill="#666" fill-opacity=".7992" stroke="#000" stroke-miterlimit="10" stroke-width=".25"/></g><g transform="translate(0 112)"><path d="m0 0h192" fill="#666" fill-opacity=".7992" stroke="#000" stroke-miterlimit="10" stroke-width=".25"/></g><g transform="translate(0 116)"><path d="m0 0h192" fill="#666" fill-opacity=".7992" stroke="#000" stroke-miterlimit="10" stroke-width=".25"/></g><g transform="translate(0 120)"><path d="m0 0h192" fill="#666" fill-opacity=".7992" stroke="#000" stroke-miterlimit="10" stroke-width=".25"/></g><g transform="translate(0 124)"><path d="m0 0h192" fill="#666" fill-opacity=".7992" stroke="#000" stroke-miterlimit="10" stroke-width=".25"/></g><g transform="translate(0 128)"><path d="m0 0h192" fill="#666" fill-opacity=".7992" stroke="#000" stroke-miterlimit="10" stroke-width=".25"/></g><g transform="translate(0 132)"><path d="m0 0h192" fill="#666" fill-opacity=".7992" stroke="#000" stroke-miterlimit="10" stroke-width=".25"/></g><g transform="translate(0 136)"><path d="m0 0h192" fill="#666" fill-opacity=".7992" stroke="#000" stroke-miterlimit="10" stroke-width=".25"/></g><g transform="translate(0 140)"><path d="m0 0h192" fill="#666" fill-opacity=".7992" stroke="#000" stroke-miterlimit="10" stroke-width=".25"/></g><g transform="translate(0 144)"><path d="m0 0h192" fill="#666" fill-opacity=".7992" stroke="#000" stroke-miterlimit="10" stroke-width=".25"/></g><g transform="translate(0 148)"><path d="m0 0h192" fill="#666" fill-opacity=".7992" stroke="#000" stroke-miterlimit="10" stroke-width=".25"/></g><g transform="translate(0 152)"><path d="m0 0h192" fill="#666" fill-opacity=".7992" stroke="#000" stroke-miterlimit="10" stroke-width=".25"/></g><g transform="translate(0 156)"><path d="m0 0h192" fill="#666" fill-opacity=".7992" stroke="#000" stroke-miterlimit="10" stroke-width=".25"/></g><g transform="translate(0 160)"><path d="m0 0h192" fill="#666" fill-opacity=".7992" stroke="#000" stroke-miterlimit="10" stroke-width=".25"/></g><g transform="translate(0 164)"><path d="m0 0h192" fill="#666" fill-opacity=".7992" stroke="#000" stroke-miterlimit="10" stroke-width=".25"/></g><g transform="translate(0 168)"><path d="m0 0h192" fill="#666" fill-opacity=".7992" stroke="#000" stroke-miterlimit="10" stroke-width=".25"/></g><g transform="translate(0 172)"><path d="m0 0h192" fill="#666" fill-opacity=".7992" stroke="#000" stroke-miterlimit="10" stroke-width=".25"/></g><g transform="translate(0 176)"><path d="m0 0h192" fill="#666" fill-opacity=".7992" stroke="#000" stroke-miterlimit="10" stroke-width=".25"/></g><g transform="translate(0 180)"><path d="m0 0h192" fill="#666" fill-opacity=".7992" stroke="#000" stroke-miterlimit="10" stroke-width=".25"/></g><g transform="translate(0 184)"><path d="m0 0h192" fill="#666" fill-opacity=".7992" stroke="#000" stroke-miterlimit="10" stroke-width=".25"/></g><g transform="translate(0 188)"><path d="m0 0h192" fill="#666" fill-opacity=".7992" stroke="#000" stroke-miterlimit="10" stroke-width=".25"/></g></g><path d="m0 1e-3h192v192h-192zm0.25 191.7h191.5v-191.5h-191.5z"/></g></g></g></g></g></g></g></g><g><rect x="28.37" y="12.41" width="135.3" height="167.5" ry="8.225" fill-opacity=".8543" stroke="#000" stroke-linecap="round" stroke-linejoin="round" stroke-width="8.482"/><text x="35.333336" y="119.33334" fill="#ffffff" font-family="Sans" font-size="13.33px" letter-spacing="0px" stroke="#ffffff" stroke-width="1px" word-spacing="0px" style="line-height:125%" xml:space="preserve"><tspan x="35.333336" y="119.33334" fill="#ffffff" font-family="'hooge 05_53'" font-size="74.67px" stroke="#ffffff" stroke-width="1px" style="font-feature-settings:normal;font-variant-caps:normal;font-variant-ligatures:normal;font-variant-numeric:normal">BIP</tspan></text><g stroke="#000" stroke-linecap="round" stroke-linejoin="round">
<rect x="47.08" y=".4557" width="9.422" height="7.749"/><rect x="135.3" y=".25" width="9.422" height="7.749"/><rect x="135.3" y="184" width="9.422" height="7.749"/><rect x="47.29" y="184" width="9.422" height="7.749"/></g><path d="m175.7 96a4 14 0 0 1-3.97 14 4 14 0 0 1-4.029-13.79 4 14 0 0 1 3.911-14.2 4 14 0 0 1 4.087 13.58l-3.998 0.4147z" fill="#0f0000" stroke="#000" stroke-linecap="round" stroke-linejoin="round"/></g></svg>
